<?xml version="1.0" encoding="utf-8"?>
<!-- Generator: Adobe Illustrator 25.4.1, SVG Export Plug-In . SVG Version: 6.00 Build 0)  -->
<svg version="1.1" id="Layer_1" xmlns="http://www.w3.org/2000/svg" xmlns:xlink="http://www.w3.org/1999/xlink" x="0px" y="0px"
	 viewBox="0 0 4096 4096" style="enable-background:new 0 0 4096 4096;" xml:space="preserve">
<style type="text/css">
	.st0{fill:#FEFEFE;}
</style>
<path d="M3706,86.2c13.3-0.3,26.7-0.5,40-0.8c24.5,7.1,30.8,28.5,38.2,49c81.2,224.9,100.7,456,64.5,691.5
	c-56,364.2-236.1,662.7-493.6,919.1c-276.6,275.5-553.5,550.7-830.1,826.2c-127,126.5-253.4,253.5-380.2,380.1
	c-43,42.9-61.9,42.6-105.3-0.8c-182-181.9-364-363.8-545.9-545.7c-45.3-45.3-45.3-66.4-0.2-111.5
	c726-725.8,1452-1451.7,2178.2-2177.4C3682.1,105.2,3694.4,96.1,3706,86.2z"/>
<path d="M1805.4,2816.2c-83.1-35.4-128.1,2.8-170.2,69.9c-158.8,252.9-379.5,447.6-609.2,633c-73.6,59.4-148.7,117-227.3,169.9
	c-21.5,14.4-31.5,31.4-28.7,57.5c3.2,29.2,3.3,58.8,6.5,88c11.5,105.3-42.5,171.5-147.8,175.4c-152.5,5.6-383.2-122.7-399.1-342.8
	c-8.6-119,46.7-215.5,124-299.6c88.4-96.2,188.6-180.4,284-269.4c247.1-230.5,495.1-459.9,742.1-690.4c16.9-15.7,25.4-20.3,37.7,3.8
	c7.3,14.3,20.8,25.7,32.5,37.4c109.4,109.7,218.8,219.2,328.7,328.4c9.8,9.7,22.8,16.3,34.3,24.3
	C1810.5,2806.4,1808,2811.3,1805.4,2816.2z"/>
<path class="st0" d="M3531.4,770.4c-23.2,139.6-72.7,275.7-142.4,404.6c-86.4,159.9-198.9,300.1-327,428.2
	c-310.3,310.3-620.6,620.7-931,930.9c-8.1,8.1-16.2,16.7-25.7,22.8c-10.6,6.7-22.1,5-31.7-4c-10.6-9.9-14.6-22-6.4-34.3
	c6.9-10.5,16.3-19.5,25.3-28.5c318.3-318.6,637.7-636.1,954.6-956.1c185.9-187.8,329.3-403.1,400.7-661
	c10.5-38.1,18.8-76.9,26.6-115.6c4.2-20.7,14.5-34.4,35.7-30.9C3529.9,729.6,3534.6,746.4,3531.4,770.4z"/>
</svg>
