<?xml version="1.0" encoding="UTF-8"?>
<svg xmlns="http://www.w3.org/2000/svg" width="920" height="720" viewBox="0 0 920 720" role="img" aria-labelledby="title desc">
  <title id="title">BladeVault DMG background</title>
  <desc id="desc">Installer instructions for dragging BladeVault into Applications, then opening a text file to copy the launch commands.</desc>
  <defs>
    <linearGradient id="bg" x1="0" y1="0" x2="1" y2="1">
      <stop offset="0%" stop-color="#FAFAF8"/>
      <stop offset="100%" stop-color="#EEF0E8"/>
    </linearGradient>
    <linearGradient id="panel" x1="0" y1="0" x2="1" y2="1">
      <stop offset="0%" stop-color="#FAFBF8"/>
      <stop offset="100%" stop-color="#F4F6F0"/>
    </linearGradient>
    <filter id="shadow" x="-20%" y="-20%" width="140%" height="140%">
      <feDropShadow dx="0" dy="12" stdDeviation="18" flood-color="#18191D" flood-opacity="0.10"/>
    </filter>
    <style>
      .sans { font-family: -apple-system, BlinkMacSystemFont, 'Segoe UI', sans-serif; }
      .title { fill: #18191D; font-size: 44px; font-weight: 700; }
      .step-label { fill: #86A91E; font-size: 17px; font-weight: 700; letter-spacing: 2.4px; }
      .step-title { fill: #18191D; font-size: 24px; font-weight: 650; }
      .mono { font-family: 'SFMono-Regular', Menlo, Monaco, monospace; fill: #2B313B; font-size: 14px; }
      .lane-label { fill: #6B7180; font-size: 14px; letter-spacing: 1.6px; font-weight: 700; }
    </style>
  </defs>

  <rect width="920" height="720" fill="url(#bg)"/>
  <circle cx="846" cy="104" r="172" fill="#FFFFFF" opacity="0.44"/>
  <circle cx="120" cy="648" r="180" fill="#FFFFFF" opacity="0.34"/>
  <circle cx="764" cy="626" r="122" fill="#FFFFFF" opacity="0.18"/>

  <rect x="64" y="48" width="792" height="624" rx="30" fill="#FFFFFF" opacity="0.98" filter="url(#shadow)"/>
  <rect x="64" y="48" width="792" height="624" rx="30" fill="none" stroke="#D8DCD1"/>

  <text class="sans title" x="460" y="118" text-anchor="middle">Install Blade</text>

  <rect x="96" y="186" width="728" height="92" rx="24" fill="url(#panel)" stroke="#DCE0D7"/>
  <text class="sans step-label" x="126" y="222">STEP 1</text>
  <text class="sans step-title" x="126" y="254">Drag BladeVault.app into Applications.</text>

  <rect x="96" y="304" width="728" height="174" rx="28" fill="#FFFFFF" opacity="0.62" stroke="#E1E5DB"/>
  <rect x="156" y="340" width="170" height="114" rx="28" fill="#FFFFFF" stroke="#D8DDD2"/>
  <rect x="594" y="340" width="170" height="114" rx="28" fill="#FFFFFF" stroke="#D8DDD2"/>

  <text class="sans lane-label" x="241" y="328" text-anchor="middle">BLADEVAULT</text>
  <text class="sans lane-label" x="679" y="328" text-anchor="middle">APPLICATIONS</text>

  <g opacity="0.86">
    <path d="M356 397 H554" fill="none" stroke="#7A808B" stroke-width="8" stroke-linecap="round" stroke-dasharray="18 14"/>
    <path d="M504 367 L554 397 L504 427" fill="none" stroke="#7A808B" stroke-width="8" stroke-linecap="round" stroke-linejoin="round"/>
  </g>

  <rect x="96" y="506" width="728" height="138" rx="24" fill="url(#panel)" stroke="#DCE0D7"/>
  <text class="sans step-label" x="126" y="542">STEP 2</text>
  <text class="sans step-title" x="126" y="574">Open First Launch.txt and copy this in Terminal.</text>

  <rect x="126" y="588" width="500" height="40" rx="14" fill="#F7F8F3" stroke="#DCE0D7"/>
  <text class="mono" x="146" y="606">xattr -d com.apple.quarantine "/Applications/BladeVault.app"</text>
  <text class="mono" x="146" y="622">open "/Applications/BladeVault.app"</text>

</svg>
