<?xml version="1.0" encoding="utf-8"?>
<svg version="1.1" xmlns="http://www.w3.org/2000/svg" viewBox="0 0 16 16">
  <style type="text/css">
    .st0{fill:#18191D;}
    .st1{fill:#9FC629;}
  </style>
  <g>
    <g>
      <path class="st0" d="M6.8,6.6L4.6,2.9C4.5,2.7,4.7,2.3,5,2.3h6.6c0.1,0,0.3-0.1,0.4-0.2l0.9-1.5C13,0.3,12.8,0,12.4,0H0.7
        C0.4,0,0.2,0.3,0.4,0.6l4.4,7.6c0.1,0.2,0.5,0.3,0.6,0.1l1.2-1.2C6.8,7,6.8,6.8,6.8,6.6z"/>
      <path class="st0" d="M8.1,13.9l1.1,1.9c0.2,0.3,0.6,0.3,0.7,0l1-1.7c0.1-0.1,0.1-0.3,0-0.4L10,12.3C9.9,12,9.6,12,9.4,12.2
        l-1.2,1.2C8,13.6,8,13.8,8.1,13.9z"/>
    </g>
    <g>
      <path class="st1" d="M14.4,5.5c-0.9,0.9-1.8,1.8-2.7,2.7c-0.2,0.2-0.4,0.2-0.7,0c-0.2-0.2-0.4-0.2-0.6,0c-0.2,0.2-0.5,0.2-0.7,0
        C9.4,8,9.2,7.7,8.9,7.5C8.8,7.3,8.8,7.2,8.9,7c0.6-0.6,1.3-1.3,1.9-1.9C12.2,3.7,13.6,2.3,15,1c0.2-0.2,0.4-0.2,0.5,0.1
        c0.1,0.4,0.2,0.9,0.2,1.4C15.7,3.6,15.2,4.6,14.4,5.5z M14.5,2.9c-0.1,0-0.2,0-0.2,0.2c-0.2,0.8-0.7,1.4-1.3,2
        c-0.2,0.2-0.3,0.3-0.5,0.5c-0.1,0.1-0.1,0.3,0,0.3c0.1,0.1,0.2,0.1,0.3,0c0.3-0.3,0.7-0.7,1-1c0.4-0.4,0.7-1,0.9-1.6
        c0,0,0-0.1,0-0.1C14.7,3,14.6,2.9,14.5,2.9z"/>
      <path class="st1" d="M5.4,13.6C5.4,13.6,5.3,13.6,5.4,13.6c-0.6-0.1-1-0.4-1.1-0.9c-0.2-0.5,0-0.9,0.4-1.3C5.8,10.2,7,9,8.2,7.8
        c0.2-0.2,0.3-0.2,0.4,0c0.3,0.3,0.7,0.7,1,1C10,9.2,10,9.6,9.4,9.7C9.2,9.8,9,10,8.8,10.2c-0.7,1.1-1.5,2.1-2.4,3
        C6.1,13.4,5.8,13.6,5.4,13.6C5.4,13.6,5.4,13.6,5.4,13.6z M5.4,12.1c-0.2,0-0.3,0.2-0.3,0.3c0,0.2,0.1,0.3,0.3,0.3
        c0.2,0,0.3-0.1,0.3-0.3C5.7,12.2,5.6,12.1,5.4,12.1z"/>
    </g>
  </g>
</svg>
